%
M48
M72
T01C0.0197
T02C0.0315
T03C0.0354
T04C0.1260
%
T01
X11650Y3475
X12650Y3100
X13650Y2725
X19150Y1975
X20150Y2350
X26650Y2350
X27650Y1975
X28650Y2725
X32650Y3475
X33650Y3100
X33150Y2350
X25650Y5725
X23150Y6100
X21150Y6850
X19150Y5725
X17650Y6475
X21650Y9100
X20650Y9475
X24650Y8725
X29650Y7600
X30650Y7975
X31650Y8350
X28775Y11350
X29775Y11725
X27650Y12475
X26775Y12100
X25150Y12850
X24150Y13225
X23650Y13225
X21650Y12850
X25650Y13600
X26150Y13600
T02
X25775Y14350
X26775Y14350
X27775Y14350
X28775Y14350
X29775Y14350
X30775Y14350
X31775Y14350
X32775Y14350
X33775Y14350
X34150Y12100
X32150Y12100
X32150Y10350
X31150Y10350
X30150Y10350
X29150Y10350
X28150Y10350
X27150Y10350
X26150Y10350
X25150Y10350
X24150Y10350
X23150Y10350
X22150Y10350
X21150Y10350
X20150Y10350
X19150Y10350
X18150Y10350
X17150Y10350
X16150Y10350
X15150Y10350
X9900Y9350
X8900Y9350
X7900Y9350
X6900Y9350
X5900Y9350
X4900Y9350
X3900Y9350
X1900Y9100
X1900Y7350
X2900Y7350
X3900Y7350
X4900Y7350
X5900Y7350
X6900Y7350
X7900Y7350
X8900Y7350
X9900Y7350
X10900Y7350
X10900Y4350
X9900Y4350
X8900Y4350
X7900Y4350
X6900Y4350
X5900Y4350
X4900Y4350
X3900Y4350
X2900Y4350
X1900Y4350
X1900Y11100
X4400Y11350
X5400Y11350
X6400Y11350
X7400Y11350
X8400Y11350
X9400Y11350
X9400Y14350
X8400Y14350
X7400Y14350
X6400Y14350
X5400Y14350
X4400Y14350
X12650Y14350
X13650Y14350
X14650Y14350
X15650Y14350
X16650Y14350
X17650Y14350
X18650Y14350
X19650Y14350
X20650Y14350
X33150Y10350
X34150Y10350
X35650Y9350
X35650Y5350
X34150Y4350
X33150Y4350
X32150Y4350
X31150Y4350
X30150Y4350
X29150Y4350
X28150Y4350
X27150Y4350
X26150Y4350
X25150Y4350
X24150Y4350
X23150Y4350
X22150Y4350
X21150Y4350
X20150Y4350
X19150Y4350
X18150Y4350
X17150Y4350
X16150Y4350
X15150Y4350
T03
X650Y775
X1650Y775
X2650Y775
X3650Y775
X4650Y775
X5650Y775
X6650Y775
X7650Y775
X8650Y775
X9650Y775
X10650Y775
X11650Y775
X12650Y775
X13650Y775
X14650Y775
X15650Y775
X16650Y775
X17650Y775
X18650Y775
X19650Y775
X20650Y775
X21650Y775
X22650Y775
X23650Y775
X24650Y775
X25650Y775
X26650Y775
X27650Y775
X28650Y775
X29650Y775
X30650Y775
X31650Y775
X32650Y775
X33650Y775
X34650Y775
X35650Y775
X36650Y775
X37650Y775
X38650Y775
X31956Y16350
X30866Y16350
X29775Y16350
X28684Y16350
X27594Y16350
X28139Y17350
X29230Y17350
X30320Y17350
X31411Y17350
X18831Y16350
X17741Y16350
X16650Y16350
X15559Y16350
X14469Y16350
X15014Y17350
X16105Y17350
X17195Y17350
X18286Y17350
T04
X21571Y16850
X24854Y16850
X34696Y16850
X11729Y16850
X2130Y13140
M30
