G75*
%MOIN*%
%OFA0B0*%
%FSLAX25Y25*%
%IPPOS*%
%LPD*%
%AMOC8*
5,1,8,0,0,1.08239X$1,22.5*
%
%ADD10C,0.00000*%
D10*
X0001500Y0001000D02*
X0001500Y0138201D01*
X0060598Y0197299D01*
X0371602Y0197299D01*
X0372087Y0197293D01*
X0372572Y0197276D01*
X0373056Y0197246D01*
X0373540Y0197205D01*
X0374022Y0197153D01*
X0374503Y0197088D01*
X0374982Y0197012D01*
X0375460Y0196925D01*
X0375935Y0196826D01*
X0376407Y0196716D01*
X0376877Y0196594D01*
X0377344Y0196461D01*
X0377807Y0196316D01*
X0378266Y0196161D01*
X0378722Y0195994D01*
X0379174Y0195817D01*
X0379621Y0195628D01*
X0380063Y0195429D01*
X0380501Y0195219D01*
X0380933Y0194999D01*
X0381360Y0194768D01*
X0381781Y0194527D01*
X0382196Y0194276D01*
X0382606Y0194015D01*
X0383008Y0193745D01*
X0383404Y0193464D01*
X0383793Y0193174D01*
X0384175Y0192875D01*
X0384550Y0192567D01*
X0384917Y0192249D01*
X0385276Y0191923D01*
X0385627Y0191589D01*
X0385971Y0191245D01*
X0386305Y0190894D01*
X0386631Y0190535D01*
X0386949Y0190168D01*
X0387257Y0189793D01*
X0387556Y0189411D01*
X0387846Y0189022D01*
X0388127Y0188626D01*
X0388397Y0188224D01*
X0388658Y0187814D01*
X0388909Y0187399D01*
X0389150Y0186978D01*
X0389381Y0186551D01*
X0389601Y0186119D01*
X0389811Y0185681D01*
X0390010Y0185239D01*
X0390199Y0184792D01*
X0390376Y0184340D01*
X0390543Y0183884D01*
X0390698Y0183425D01*
X0390843Y0182962D01*
X0390976Y0182495D01*
X0391098Y0182025D01*
X0391208Y0181553D01*
X0391307Y0181078D01*
X0391394Y0180600D01*
X0391470Y0180121D01*
X0391535Y0179640D01*
X0391587Y0179158D01*
X0391628Y0178674D01*
X0391658Y0178190D01*
X0391675Y0177705D01*
X0391681Y0177220D01*
X0391681Y0001000D01*
X0001500Y0001000D01*
X0015000Y0131402D02*
X0015002Y0131560D01*
X0015008Y0131718D01*
X0015018Y0131876D01*
X0015032Y0132034D01*
X0015050Y0132191D01*
X0015071Y0132348D01*
X0015097Y0132504D01*
X0015127Y0132660D01*
X0015160Y0132815D01*
X0015198Y0132968D01*
X0015239Y0133121D01*
X0015284Y0133273D01*
X0015333Y0133424D01*
X0015386Y0133573D01*
X0015442Y0133721D01*
X0015502Y0133867D01*
X0015566Y0134012D01*
X0015634Y0134155D01*
X0015705Y0134297D01*
X0015779Y0134437D01*
X0015857Y0134574D01*
X0015939Y0134710D01*
X0016023Y0134844D01*
X0016112Y0134975D01*
X0016203Y0135104D01*
X0016298Y0135231D01*
X0016395Y0135356D01*
X0016496Y0135478D01*
X0016600Y0135597D01*
X0016707Y0135714D01*
X0016817Y0135828D01*
X0016930Y0135939D01*
X0017045Y0136048D01*
X0017163Y0136153D01*
X0017284Y0136255D01*
X0017407Y0136355D01*
X0017533Y0136451D01*
X0017661Y0136544D01*
X0017791Y0136634D01*
X0017924Y0136720D01*
X0018059Y0136804D01*
X0018195Y0136883D01*
X0018334Y0136960D01*
X0018475Y0137032D01*
X0018617Y0137102D01*
X0018761Y0137167D01*
X0018907Y0137229D01*
X0019054Y0137287D01*
X0019203Y0137342D01*
X0019353Y0137393D01*
X0019504Y0137440D01*
X0019656Y0137483D01*
X0019809Y0137522D01*
X0019964Y0137558D01*
X0020119Y0137589D01*
X0020275Y0137617D01*
X0020431Y0137641D01*
X0020588Y0137661D01*
X0020746Y0137677D01*
X0020903Y0137689D01*
X0021062Y0137697D01*
X0021220Y0137701D01*
X0021378Y0137701D01*
X0021536Y0137697D01*
X0021695Y0137689D01*
X0021852Y0137677D01*
X0022010Y0137661D01*
X0022167Y0137641D01*
X0022323Y0137617D01*
X0022479Y0137589D01*
X0022634Y0137558D01*
X0022789Y0137522D01*
X0022942Y0137483D01*
X0023094Y0137440D01*
X0023245Y0137393D01*
X0023395Y0137342D01*
X0023544Y0137287D01*
X0023691Y0137229D01*
X0023837Y0137167D01*
X0023981Y0137102D01*
X0024123Y0137032D01*
X0024264Y0136960D01*
X0024403Y0136883D01*
X0024539Y0136804D01*
X0024674Y0136720D01*
X0024807Y0136634D01*
X0024937Y0136544D01*
X0025065Y0136451D01*
X0025191Y0136355D01*
X0025314Y0136255D01*
X0025435Y0136153D01*
X0025553Y0136048D01*
X0025668Y0135939D01*
X0025781Y0135828D01*
X0025891Y0135714D01*
X0025998Y0135597D01*
X0026102Y0135478D01*
X0026203Y0135356D01*
X0026300Y0135231D01*
X0026395Y0135104D01*
X0026486Y0134975D01*
X0026575Y0134844D01*
X0026659Y0134710D01*
X0026741Y0134574D01*
X0026819Y0134437D01*
X0026893Y0134297D01*
X0026964Y0134155D01*
X0027032Y0134012D01*
X0027096Y0133867D01*
X0027156Y0133721D01*
X0027212Y0133573D01*
X0027265Y0133424D01*
X0027314Y0133273D01*
X0027359Y0133121D01*
X0027400Y0132968D01*
X0027438Y0132815D01*
X0027471Y0132660D01*
X0027501Y0132504D01*
X0027527Y0132348D01*
X0027548Y0132191D01*
X0027566Y0132034D01*
X0027580Y0131876D01*
X0027590Y0131718D01*
X0027596Y0131560D01*
X0027598Y0131402D01*
X0027596Y0131244D01*
X0027590Y0131086D01*
X0027580Y0130928D01*
X0027566Y0130770D01*
X0027548Y0130613D01*
X0027527Y0130456D01*
X0027501Y0130300D01*
X0027471Y0130144D01*
X0027438Y0129989D01*
X0027400Y0129836D01*
X0027359Y0129683D01*
X0027314Y0129531D01*
X0027265Y0129380D01*
X0027212Y0129231D01*
X0027156Y0129083D01*
X0027096Y0128937D01*
X0027032Y0128792D01*
X0026964Y0128649D01*
X0026893Y0128507D01*
X0026819Y0128367D01*
X0026741Y0128230D01*
X0026659Y0128094D01*
X0026575Y0127960D01*
X0026486Y0127829D01*
X0026395Y0127700D01*
X0026300Y0127573D01*
X0026203Y0127448D01*
X0026102Y0127326D01*
X0025998Y0127207D01*
X0025891Y0127090D01*
X0025781Y0126976D01*
X0025668Y0126865D01*
X0025553Y0126756D01*
X0025435Y0126651D01*
X0025314Y0126549D01*
X0025191Y0126449D01*
X0025065Y0126353D01*
X0024937Y0126260D01*
X0024807Y0126170D01*
X0024674Y0126084D01*
X0024539Y0126000D01*
X0024403Y0125921D01*
X0024264Y0125844D01*
X0024123Y0125772D01*
X0023981Y0125702D01*
X0023837Y0125637D01*
X0023691Y0125575D01*
X0023544Y0125517D01*
X0023395Y0125462D01*
X0023245Y0125411D01*
X0023094Y0125364D01*
X0022942Y0125321D01*
X0022789Y0125282D01*
X0022634Y0125246D01*
X0022479Y0125215D01*
X0022323Y0125187D01*
X0022167Y0125163D01*
X0022010Y0125143D01*
X0021852Y0125127D01*
X0021695Y0125115D01*
X0021536Y0125107D01*
X0021378Y0125103D01*
X0021220Y0125103D01*
X0021062Y0125107D01*
X0020903Y0125115D01*
X0020746Y0125127D01*
X0020588Y0125143D01*
X0020431Y0125163D01*
X0020275Y0125187D01*
X0020119Y0125215D01*
X0019964Y0125246D01*
X0019809Y0125282D01*
X0019656Y0125321D01*
X0019504Y0125364D01*
X0019353Y0125411D01*
X0019203Y0125462D01*
X0019054Y0125517D01*
X0018907Y0125575D01*
X0018761Y0125637D01*
X0018617Y0125702D01*
X0018475Y0125772D01*
X0018334Y0125844D01*
X0018195Y0125921D01*
X0018059Y0126000D01*
X0017924Y0126084D01*
X0017791Y0126170D01*
X0017661Y0126260D01*
X0017533Y0126353D01*
X0017407Y0126449D01*
X0017284Y0126549D01*
X0017163Y0126651D01*
X0017045Y0126756D01*
X0016930Y0126865D01*
X0016817Y0126976D01*
X0016707Y0127090D01*
X0016600Y0127207D01*
X0016496Y0127326D01*
X0016395Y0127448D01*
X0016298Y0127573D01*
X0016203Y0127700D01*
X0016112Y0127829D01*
X0016023Y0127960D01*
X0015939Y0128094D01*
X0015857Y0128230D01*
X0015779Y0128367D01*
X0015705Y0128507D01*
X0015634Y0128649D01*
X0015566Y0128792D01*
X0015502Y0128937D01*
X0015442Y0129083D01*
X0015386Y0129231D01*
X0015333Y0129380D01*
X0015284Y0129531D01*
X0015239Y0129683D01*
X0015198Y0129836D01*
X0015160Y0129989D01*
X0015127Y0130144D01*
X0015097Y0130300D01*
X0015071Y0130456D01*
X0015050Y0130613D01*
X0015032Y0130770D01*
X0015018Y0130928D01*
X0015008Y0131086D01*
X0015002Y0131244D01*
X0015000Y0131402D01*
X0110988Y0168500D02*
X0110990Y0168658D01*
X0110996Y0168816D01*
X0111006Y0168974D01*
X0111020Y0169132D01*
X0111038Y0169289D01*
X0111059Y0169446D01*
X0111085Y0169602D01*
X0111115Y0169758D01*
X0111148Y0169913D01*
X0111186Y0170066D01*
X0111227Y0170219D01*
X0111272Y0170371D01*
X0111321Y0170522D01*
X0111374Y0170671D01*
X0111430Y0170819D01*
X0111490Y0170965D01*
X0111554Y0171110D01*
X0111622Y0171253D01*
X0111693Y0171395D01*
X0111767Y0171535D01*
X0111845Y0171672D01*
X0111927Y0171808D01*
X0112011Y0171942D01*
X0112100Y0172073D01*
X0112191Y0172202D01*
X0112286Y0172329D01*
X0112383Y0172454D01*
X0112484Y0172576D01*
X0112588Y0172695D01*
X0112695Y0172812D01*
X0112805Y0172926D01*
X0112918Y0173037D01*
X0113033Y0173146D01*
X0113151Y0173251D01*
X0113272Y0173353D01*
X0113395Y0173453D01*
X0113521Y0173549D01*
X0113649Y0173642D01*
X0113779Y0173732D01*
X0113912Y0173818D01*
X0114047Y0173902D01*
X0114183Y0173981D01*
X0114322Y0174058D01*
X0114463Y0174130D01*
X0114605Y0174200D01*
X0114749Y0174265D01*
X0114895Y0174327D01*
X0115042Y0174385D01*
X0115191Y0174440D01*
X0115341Y0174491D01*
X0115492Y0174538D01*
X0115644Y0174581D01*
X0115797Y0174620D01*
X0115952Y0174656D01*
X0116107Y0174687D01*
X0116263Y0174715D01*
X0116419Y0174739D01*
X0116576Y0174759D01*
X0116734Y0174775D01*
X0116891Y0174787D01*
X0117050Y0174795D01*
X0117208Y0174799D01*
X0117366Y0174799D01*
X0117524Y0174795D01*
X0117683Y0174787D01*
X0117840Y0174775D01*
X0117998Y0174759D01*
X0118155Y0174739D01*
X0118311Y0174715D01*
X0118467Y0174687D01*
X0118622Y0174656D01*
X0118777Y0174620D01*
X0118930Y0174581D01*
X0119082Y0174538D01*
X0119233Y0174491D01*
X0119383Y0174440D01*
X0119532Y0174385D01*
X0119679Y0174327D01*
X0119825Y0174265D01*
X0119969Y0174200D01*
X0120111Y0174130D01*
X0120252Y0174058D01*
X0120391Y0173981D01*
X0120527Y0173902D01*
X0120662Y0173818D01*
X0120795Y0173732D01*
X0120925Y0173642D01*
X0121053Y0173549D01*
X0121179Y0173453D01*
X0121302Y0173353D01*
X0121423Y0173251D01*
X0121541Y0173146D01*
X0121656Y0173037D01*
X0121769Y0172926D01*
X0121879Y0172812D01*
X0121986Y0172695D01*
X0122090Y0172576D01*
X0122191Y0172454D01*
X0122288Y0172329D01*
X0122383Y0172202D01*
X0122474Y0172073D01*
X0122563Y0171942D01*
X0122647Y0171808D01*
X0122729Y0171672D01*
X0122807Y0171535D01*
X0122881Y0171395D01*
X0122952Y0171253D01*
X0123020Y0171110D01*
X0123084Y0170965D01*
X0123144Y0170819D01*
X0123200Y0170671D01*
X0123253Y0170522D01*
X0123302Y0170371D01*
X0123347Y0170219D01*
X0123388Y0170066D01*
X0123426Y0169913D01*
X0123459Y0169758D01*
X0123489Y0169602D01*
X0123515Y0169446D01*
X0123536Y0169289D01*
X0123554Y0169132D01*
X0123568Y0168974D01*
X0123578Y0168816D01*
X0123584Y0168658D01*
X0123586Y0168500D01*
X0123584Y0168342D01*
X0123578Y0168184D01*
X0123568Y0168026D01*
X0123554Y0167868D01*
X0123536Y0167711D01*
X0123515Y0167554D01*
X0123489Y0167398D01*
X0123459Y0167242D01*
X0123426Y0167087D01*
X0123388Y0166934D01*
X0123347Y0166781D01*
X0123302Y0166629D01*
X0123253Y0166478D01*
X0123200Y0166329D01*
X0123144Y0166181D01*
X0123084Y0166035D01*
X0123020Y0165890D01*
X0122952Y0165747D01*
X0122881Y0165605D01*
X0122807Y0165465D01*
X0122729Y0165328D01*
X0122647Y0165192D01*
X0122563Y0165058D01*
X0122474Y0164927D01*
X0122383Y0164798D01*
X0122288Y0164671D01*
X0122191Y0164546D01*
X0122090Y0164424D01*
X0121986Y0164305D01*
X0121879Y0164188D01*
X0121769Y0164074D01*
X0121656Y0163963D01*
X0121541Y0163854D01*
X0121423Y0163749D01*
X0121302Y0163647D01*
X0121179Y0163547D01*
X0121053Y0163451D01*
X0120925Y0163358D01*
X0120795Y0163268D01*
X0120662Y0163182D01*
X0120527Y0163098D01*
X0120391Y0163019D01*
X0120252Y0162942D01*
X0120111Y0162870D01*
X0119969Y0162800D01*
X0119825Y0162735D01*
X0119679Y0162673D01*
X0119532Y0162615D01*
X0119383Y0162560D01*
X0119233Y0162509D01*
X0119082Y0162462D01*
X0118930Y0162419D01*
X0118777Y0162380D01*
X0118622Y0162344D01*
X0118467Y0162313D01*
X0118311Y0162285D01*
X0118155Y0162261D01*
X0117998Y0162241D01*
X0117840Y0162225D01*
X0117683Y0162213D01*
X0117524Y0162205D01*
X0117366Y0162201D01*
X0117208Y0162201D01*
X0117050Y0162205D01*
X0116891Y0162213D01*
X0116734Y0162225D01*
X0116576Y0162241D01*
X0116419Y0162261D01*
X0116263Y0162285D01*
X0116107Y0162313D01*
X0115952Y0162344D01*
X0115797Y0162380D01*
X0115644Y0162419D01*
X0115492Y0162462D01*
X0115341Y0162509D01*
X0115191Y0162560D01*
X0115042Y0162615D01*
X0114895Y0162673D01*
X0114749Y0162735D01*
X0114605Y0162800D01*
X0114463Y0162870D01*
X0114322Y0162942D01*
X0114183Y0163019D01*
X0114047Y0163098D01*
X0113912Y0163182D01*
X0113779Y0163268D01*
X0113649Y0163358D01*
X0113521Y0163451D01*
X0113395Y0163547D01*
X0113272Y0163647D01*
X0113151Y0163749D01*
X0113033Y0163854D01*
X0112918Y0163963D01*
X0112805Y0164074D01*
X0112695Y0164188D01*
X0112588Y0164305D01*
X0112484Y0164424D01*
X0112383Y0164546D01*
X0112286Y0164671D01*
X0112191Y0164798D01*
X0112100Y0164927D01*
X0112011Y0165058D01*
X0111927Y0165192D01*
X0111845Y0165328D01*
X0111767Y0165465D01*
X0111693Y0165605D01*
X0111622Y0165747D01*
X0111554Y0165890D01*
X0111490Y0166035D01*
X0111430Y0166181D01*
X0111374Y0166329D01*
X0111321Y0166478D01*
X0111272Y0166629D01*
X0111227Y0166781D01*
X0111186Y0166934D01*
X0111148Y0167087D01*
X0111115Y0167242D01*
X0111085Y0167398D01*
X0111059Y0167554D01*
X0111038Y0167711D01*
X0111020Y0167868D01*
X0111006Y0168026D01*
X0110996Y0168184D01*
X0110990Y0168342D01*
X0110988Y0168500D01*
X0209414Y0168500D02*
X0209416Y0168658D01*
X0209422Y0168816D01*
X0209432Y0168974D01*
X0209446Y0169132D01*
X0209464Y0169289D01*
X0209485Y0169446D01*
X0209511Y0169602D01*
X0209541Y0169758D01*
X0209574Y0169913D01*
X0209612Y0170066D01*
X0209653Y0170219D01*
X0209698Y0170371D01*
X0209747Y0170522D01*
X0209800Y0170671D01*
X0209856Y0170819D01*
X0209916Y0170965D01*
X0209980Y0171110D01*
X0210048Y0171253D01*
X0210119Y0171395D01*
X0210193Y0171535D01*
X0210271Y0171672D01*
X0210353Y0171808D01*
X0210437Y0171942D01*
X0210526Y0172073D01*
X0210617Y0172202D01*
X0210712Y0172329D01*
X0210809Y0172454D01*
X0210910Y0172576D01*
X0211014Y0172695D01*
X0211121Y0172812D01*
X0211231Y0172926D01*
X0211344Y0173037D01*
X0211459Y0173146D01*
X0211577Y0173251D01*
X0211698Y0173353D01*
X0211821Y0173453D01*
X0211947Y0173549D01*
X0212075Y0173642D01*
X0212205Y0173732D01*
X0212338Y0173818D01*
X0212473Y0173902D01*
X0212609Y0173981D01*
X0212748Y0174058D01*
X0212889Y0174130D01*
X0213031Y0174200D01*
X0213175Y0174265D01*
X0213321Y0174327D01*
X0213468Y0174385D01*
X0213617Y0174440D01*
X0213767Y0174491D01*
X0213918Y0174538D01*
X0214070Y0174581D01*
X0214223Y0174620D01*
X0214378Y0174656D01*
X0214533Y0174687D01*
X0214689Y0174715D01*
X0214845Y0174739D01*
X0215002Y0174759D01*
X0215160Y0174775D01*
X0215317Y0174787D01*
X0215476Y0174795D01*
X0215634Y0174799D01*
X0215792Y0174799D01*
X0215950Y0174795D01*
X0216109Y0174787D01*
X0216266Y0174775D01*
X0216424Y0174759D01*
X0216581Y0174739D01*
X0216737Y0174715D01*
X0216893Y0174687D01*
X0217048Y0174656D01*
X0217203Y0174620D01*
X0217356Y0174581D01*
X0217508Y0174538D01*
X0217659Y0174491D01*
X0217809Y0174440D01*
X0217958Y0174385D01*
X0218105Y0174327D01*
X0218251Y0174265D01*
X0218395Y0174200D01*
X0218537Y0174130D01*
X0218678Y0174058D01*
X0218817Y0173981D01*
X0218953Y0173902D01*
X0219088Y0173818D01*
X0219221Y0173732D01*
X0219351Y0173642D01*
X0219479Y0173549D01*
X0219605Y0173453D01*
X0219728Y0173353D01*
X0219849Y0173251D01*
X0219967Y0173146D01*
X0220082Y0173037D01*
X0220195Y0172926D01*
X0220305Y0172812D01*
X0220412Y0172695D01*
X0220516Y0172576D01*
X0220617Y0172454D01*
X0220714Y0172329D01*
X0220809Y0172202D01*
X0220900Y0172073D01*
X0220989Y0171942D01*
X0221073Y0171808D01*
X0221155Y0171672D01*
X0221233Y0171535D01*
X0221307Y0171395D01*
X0221378Y0171253D01*
X0221446Y0171110D01*
X0221510Y0170965D01*
X0221570Y0170819D01*
X0221626Y0170671D01*
X0221679Y0170522D01*
X0221728Y0170371D01*
X0221773Y0170219D01*
X0221814Y0170066D01*
X0221852Y0169913D01*
X0221885Y0169758D01*
X0221915Y0169602D01*
X0221941Y0169446D01*
X0221962Y0169289D01*
X0221980Y0169132D01*
X0221994Y0168974D01*
X0222004Y0168816D01*
X0222010Y0168658D01*
X0222012Y0168500D01*
X0222010Y0168342D01*
X0222004Y0168184D01*
X0221994Y0168026D01*
X0221980Y0167868D01*
X0221962Y0167711D01*
X0221941Y0167554D01*
X0221915Y0167398D01*
X0221885Y0167242D01*
X0221852Y0167087D01*
X0221814Y0166934D01*
X0221773Y0166781D01*
X0221728Y0166629D01*
X0221679Y0166478D01*
X0221626Y0166329D01*
X0221570Y0166181D01*
X0221510Y0166035D01*
X0221446Y0165890D01*
X0221378Y0165747D01*
X0221307Y0165605D01*
X0221233Y0165465D01*
X0221155Y0165328D01*
X0221073Y0165192D01*
X0220989Y0165058D01*
X0220900Y0164927D01*
X0220809Y0164798D01*
X0220714Y0164671D01*
X0220617Y0164546D01*
X0220516Y0164424D01*
X0220412Y0164305D01*
X0220305Y0164188D01*
X0220195Y0164074D01*
X0220082Y0163963D01*
X0219967Y0163854D01*
X0219849Y0163749D01*
X0219728Y0163647D01*
X0219605Y0163547D01*
X0219479Y0163451D01*
X0219351Y0163358D01*
X0219221Y0163268D01*
X0219088Y0163182D01*
X0218953Y0163098D01*
X0218817Y0163019D01*
X0218678Y0162942D01*
X0218537Y0162870D01*
X0218395Y0162800D01*
X0218251Y0162735D01*
X0218105Y0162673D01*
X0217958Y0162615D01*
X0217809Y0162560D01*
X0217659Y0162509D01*
X0217508Y0162462D01*
X0217356Y0162419D01*
X0217203Y0162380D01*
X0217048Y0162344D01*
X0216893Y0162313D01*
X0216737Y0162285D01*
X0216581Y0162261D01*
X0216424Y0162241D01*
X0216266Y0162225D01*
X0216109Y0162213D01*
X0215950Y0162205D01*
X0215792Y0162201D01*
X0215634Y0162201D01*
X0215476Y0162205D01*
X0215317Y0162213D01*
X0215160Y0162225D01*
X0215002Y0162241D01*
X0214845Y0162261D01*
X0214689Y0162285D01*
X0214533Y0162313D01*
X0214378Y0162344D01*
X0214223Y0162380D01*
X0214070Y0162419D01*
X0213918Y0162462D01*
X0213767Y0162509D01*
X0213617Y0162560D01*
X0213468Y0162615D01*
X0213321Y0162673D01*
X0213175Y0162735D01*
X0213031Y0162800D01*
X0212889Y0162870D01*
X0212748Y0162942D01*
X0212609Y0163019D01*
X0212473Y0163098D01*
X0212338Y0163182D01*
X0212205Y0163268D01*
X0212075Y0163358D01*
X0211947Y0163451D01*
X0211821Y0163547D01*
X0211698Y0163647D01*
X0211577Y0163749D01*
X0211459Y0163854D01*
X0211344Y0163963D01*
X0211231Y0164074D01*
X0211121Y0164188D01*
X0211014Y0164305D01*
X0210910Y0164424D01*
X0210809Y0164546D01*
X0210712Y0164671D01*
X0210617Y0164798D01*
X0210526Y0164927D01*
X0210437Y0165058D01*
X0210353Y0165192D01*
X0210271Y0165328D01*
X0210193Y0165465D01*
X0210119Y0165605D01*
X0210048Y0165747D01*
X0209980Y0165890D01*
X0209916Y0166035D01*
X0209856Y0166181D01*
X0209800Y0166329D01*
X0209747Y0166478D01*
X0209698Y0166629D01*
X0209653Y0166781D01*
X0209612Y0166934D01*
X0209574Y0167087D01*
X0209541Y0167242D01*
X0209511Y0167398D01*
X0209485Y0167554D01*
X0209464Y0167711D01*
X0209446Y0167868D01*
X0209432Y0168026D01*
X0209422Y0168184D01*
X0209416Y0168342D01*
X0209414Y0168500D01*
X0242238Y0168500D02*
X0242240Y0168658D01*
X0242246Y0168816D01*
X0242256Y0168974D01*
X0242270Y0169132D01*
X0242288Y0169289D01*
X0242309Y0169446D01*
X0242335Y0169602D01*
X0242365Y0169758D01*
X0242398Y0169913D01*
X0242436Y0170066D01*
X0242477Y0170219D01*
X0242522Y0170371D01*
X0242571Y0170522D01*
X0242624Y0170671D01*
X0242680Y0170819D01*
X0242740Y0170965D01*
X0242804Y0171110D01*
X0242872Y0171253D01*
X0242943Y0171395D01*
X0243017Y0171535D01*
X0243095Y0171672D01*
X0243177Y0171808D01*
X0243261Y0171942D01*
X0243350Y0172073D01*
X0243441Y0172202D01*
X0243536Y0172329D01*
X0243633Y0172454D01*
X0243734Y0172576D01*
X0243838Y0172695D01*
X0243945Y0172812D01*
X0244055Y0172926D01*
X0244168Y0173037D01*
X0244283Y0173146D01*
X0244401Y0173251D01*
X0244522Y0173353D01*
X0244645Y0173453D01*
X0244771Y0173549D01*
X0244899Y0173642D01*
X0245029Y0173732D01*
X0245162Y0173818D01*
X0245297Y0173902D01*
X0245433Y0173981D01*
X0245572Y0174058D01*
X0245713Y0174130D01*
X0245855Y0174200D01*
X0245999Y0174265D01*
X0246145Y0174327D01*
X0246292Y0174385D01*
X0246441Y0174440D01*
X0246591Y0174491D01*
X0246742Y0174538D01*
X0246894Y0174581D01*
X0247047Y0174620D01*
X0247202Y0174656D01*
X0247357Y0174687D01*
X0247513Y0174715D01*
X0247669Y0174739D01*
X0247826Y0174759D01*
X0247984Y0174775D01*
X0248141Y0174787D01*
X0248300Y0174795D01*
X0248458Y0174799D01*
X0248616Y0174799D01*
X0248774Y0174795D01*
X0248933Y0174787D01*
X0249090Y0174775D01*
X0249248Y0174759D01*
X0249405Y0174739D01*
X0249561Y0174715D01*
X0249717Y0174687D01*
X0249872Y0174656D01*
X0250027Y0174620D01*
X0250180Y0174581D01*
X0250332Y0174538D01*
X0250483Y0174491D01*
X0250633Y0174440D01*
X0250782Y0174385D01*
X0250929Y0174327D01*
X0251075Y0174265D01*
X0251219Y0174200D01*
X0251361Y0174130D01*
X0251502Y0174058D01*
X0251641Y0173981D01*
X0251777Y0173902D01*
X0251912Y0173818D01*
X0252045Y0173732D01*
X0252175Y0173642D01*
X0252303Y0173549D01*
X0252429Y0173453D01*
X0252552Y0173353D01*
X0252673Y0173251D01*
X0252791Y0173146D01*
X0252906Y0173037D01*
X0253019Y0172926D01*
X0253129Y0172812D01*
X0253236Y0172695D01*
X0253340Y0172576D01*
X0253441Y0172454D01*
X0253538Y0172329D01*
X0253633Y0172202D01*
X0253724Y0172073D01*
X0253813Y0171942D01*
X0253897Y0171808D01*
X0253979Y0171672D01*
X0254057Y0171535D01*
X0254131Y0171395D01*
X0254202Y0171253D01*
X0254270Y0171110D01*
X0254334Y0170965D01*
X0254394Y0170819D01*
X0254450Y0170671D01*
X0254503Y0170522D01*
X0254552Y0170371D01*
X0254597Y0170219D01*
X0254638Y0170066D01*
X0254676Y0169913D01*
X0254709Y0169758D01*
X0254739Y0169602D01*
X0254765Y0169446D01*
X0254786Y0169289D01*
X0254804Y0169132D01*
X0254818Y0168974D01*
X0254828Y0168816D01*
X0254834Y0168658D01*
X0254836Y0168500D01*
X0254834Y0168342D01*
X0254828Y0168184D01*
X0254818Y0168026D01*
X0254804Y0167868D01*
X0254786Y0167711D01*
X0254765Y0167554D01*
X0254739Y0167398D01*
X0254709Y0167242D01*
X0254676Y0167087D01*
X0254638Y0166934D01*
X0254597Y0166781D01*
X0254552Y0166629D01*
X0254503Y0166478D01*
X0254450Y0166329D01*
X0254394Y0166181D01*
X0254334Y0166035D01*
X0254270Y0165890D01*
X0254202Y0165747D01*
X0254131Y0165605D01*
X0254057Y0165465D01*
X0253979Y0165328D01*
X0253897Y0165192D01*
X0253813Y0165058D01*
X0253724Y0164927D01*
X0253633Y0164798D01*
X0253538Y0164671D01*
X0253441Y0164546D01*
X0253340Y0164424D01*
X0253236Y0164305D01*
X0253129Y0164188D01*
X0253019Y0164074D01*
X0252906Y0163963D01*
X0252791Y0163854D01*
X0252673Y0163749D01*
X0252552Y0163647D01*
X0252429Y0163547D01*
X0252303Y0163451D01*
X0252175Y0163358D01*
X0252045Y0163268D01*
X0251912Y0163182D01*
X0251777Y0163098D01*
X0251641Y0163019D01*
X0251502Y0162942D01*
X0251361Y0162870D01*
X0251219Y0162800D01*
X0251075Y0162735D01*
X0250929Y0162673D01*
X0250782Y0162615D01*
X0250633Y0162560D01*
X0250483Y0162509D01*
X0250332Y0162462D01*
X0250180Y0162419D01*
X0250027Y0162380D01*
X0249872Y0162344D01*
X0249717Y0162313D01*
X0249561Y0162285D01*
X0249405Y0162261D01*
X0249248Y0162241D01*
X0249090Y0162225D01*
X0248933Y0162213D01*
X0248774Y0162205D01*
X0248616Y0162201D01*
X0248458Y0162201D01*
X0248300Y0162205D01*
X0248141Y0162213D01*
X0247984Y0162225D01*
X0247826Y0162241D01*
X0247669Y0162261D01*
X0247513Y0162285D01*
X0247357Y0162313D01*
X0247202Y0162344D01*
X0247047Y0162380D01*
X0246894Y0162419D01*
X0246742Y0162462D01*
X0246591Y0162509D01*
X0246441Y0162560D01*
X0246292Y0162615D01*
X0246145Y0162673D01*
X0245999Y0162735D01*
X0245855Y0162800D01*
X0245713Y0162870D01*
X0245572Y0162942D01*
X0245433Y0163019D01*
X0245297Y0163098D01*
X0245162Y0163182D01*
X0245029Y0163268D01*
X0244899Y0163358D01*
X0244771Y0163451D01*
X0244645Y0163547D01*
X0244522Y0163647D01*
X0244401Y0163749D01*
X0244283Y0163854D01*
X0244168Y0163963D01*
X0244055Y0164074D01*
X0243945Y0164188D01*
X0243838Y0164305D01*
X0243734Y0164424D01*
X0243633Y0164546D01*
X0243536Y0164671D01*
X0243441Y0164798D01*
X0243350Y0164927D01*
X0243261Y0165058D01*
X0243177Y0165192D01*
X0243095Y0165328D01*
X0243017Y0165465D01*
X0242943Y0165605D01*
X0242872Y0165747D01*
X0242804Y0165890D01*
X0242740Y0166035D01*
X0242680Y0166181D01*
X0242624Y0166329D01*
X0242571Y0166478D01*
X0242522Y0166629D01*
X0242477Y0166781D01*
X0242436Y0166934D01*
X0242398Y0167087D01*
X0242365Y0167242D01*
X0242335Y0167398D01*
X0242309Y0167554D01*
X0242288Y0167711D01*
X0242270Y0167868D01*
X0242256Y0168026D01*
X0242246Y0168184D01*
X0242240Y0168342D01*
X0242238Y0168500D01*
X0340664Y0168500D02*
X0340666Y0168658D01*
X0340672Y0168816D01*
X0340682Y0168974D01*
X0340696Y0169132D01*
X0340714Y0169289D01*
X0340735Y0169446D01*
X0340761Y0169602D01*
X0340791Y0169758D01*
X0340824Y0169913D01*
X0340862Y0170066D01*
X0340903Y0170219D01*
X0340948Y0170371D01*
X0340997Y0170522D01*
X0341050Y0170671D01*
X0341106Y0170819D01*
X0341166Y0170965D01*
X0341230Y0171110D01*
X0341298Y0171253D01*
X0341369Y0171395D01*
X0341443Y0171535D01*
X0341521Y0171672D01*
X0341603Y0171808D01*
X0341687Y0171942D01*
X0341776Y0172073D01*
X0341867Y0172202D01*
X0341962Y0172329D01*
X0342059Y0172454D01*
X0342160Y0172576D01*
X0342264Y0172695D01*
X0342371Y0172812D01*
X0342481Y0172926D01*
X0342594Y0173037D01*
X0342709Y0173146D01*
X0342827Y0173251D01*
X0342948Y0173353D01*
X0343071Y0173453D01*
X0343197Y0173549D01*
X0343325Y0173642D01*
X0343455Y0173732D01*
X0343588Y0173818D01*
X0343723Y0173902D01*
X0343859Y0173981D01*
X0343998Y0174058D01*
X0344139Y0174130D01*
X0344281Y0174200D01*
X0344425Y0174265D01*
X0344571Y0174327D01*
X0344718Y0174385D01*
X0344867Y0174440D01*
X0345017Y0174491D01*
X0345168Y0174538D01*
X0345320Y0174581D01*
X0345473Y0174620D01*
X0345628Y0174656D01*
X0345783Y0174687D01*
X0345939Y0174715D01*
X0346095Y0174739D01*
X0346252Y0174759D01*
X0346410Y0174775D01*
X0346567Y0174787D01*
X0346726Y0174795D01*
X0346884Y0174799D01*
X0347042Y0174799D01*
X0347200Y0174795D01*
X0347359Y0174787D01*
X0347516Y0174775D01*
X0347674Y0174759D01*
X0347831Y0174739D01*
X0347987Y0174715D01*
X0348143Y0174687D01*
X0348298Y0174656D01*
X0348453Y0174620D01*
X0348606Y0174581D01*
X0348758Y0174538D01*
X0348909Y0174491D01*
X0349059Y0174440D01*
X0349208Y0174385D01*
X0349355Y0174327D01*
X0349501Y0174265D01*
X0349645Y0174200D01*
X0349787Y0174130D01*
X0349928Y0174058D01*
X0350067Y0173981D01*
X0350203Y0173902D01*
X0350338Y0173818D01*
X0350471Y0173732D01*
X0350601Y0173642D01*
X0350729Y0173549D01*
X0350855Y0173453D01*
X0350978Y0173353D01*
X0351099Y0173251D01*
X0351217Y0173146D01*
X0351332Y0173037D01*
X0351445Y0172926D01*
X0351555Y0172812D01*
X0351662Y0172695D01*
X0351766Y0172576D01*
X0351867Y0172454D01*
X0351964Y0172329D01*
X0352059Y0172202D01*
X0352150Y0172073D01*
X0352239Y0171942D01*
X0352323Y0171808D01*
X0352405Y0171672D01*
X0352483Y0171535D01*
X0352557Y0171395D01*
X0352628Y0171253D01*
X0352696Y0171110D01*
X0352760Y0170965D01*
X0352820Y0170819D01*
X0352876Y0170671D01*
X0352929Y0170522D01*
X0352978Y0170371D01*
X0353023Y0170219D01*
X0353064Y0170066D01*
X0353102Y0169913D01*
X0353135Y0169758D01*
X0353165Y0169602D01*
X0353191Y0169446D01*
X0353212Y0169289D01*
X0353230Y0169132D01*
X0353244Y0168974D01*
X0353254Y0168816D01*
X0353260Y0168658D01*
X0353262Y0168500D01*
X0353260Y0168342D01*
X0353254Y0168184D01*
X0353244Y0168026D01*
X0353230Y0167868D01*
X0353212Y0167711D01*
X0353191Y0167554D01*
X0353165Y0167398D01*
X0353135Y0167242D01*
X0353102Y0167087D01*
X0353064Y0166934D01*
X0353023Y0166781D01*
X0352978Y0166629D01*
X0352929Y0166478D01*
X0352876Y0166329D01*
X0352820Y0166181D01*
X0352760Y0166035D01*
X0352696Y0165890D01*
X0352628Y0165747D01*
X0352557Y0165605D01*
X0352483Y0165465D01*
X0352405Y0165328D01*
X0352323Y0165192D01*
X0352239Y0165058D01*
X0352150Y0164927D01*
X0352059Y0164798D01*
X0351964Y0164671D01*
X0351867Y0164546D01*
X0351766Y0164424D01*
X0351662Y0164305D01*
X0351555Y0164188D01*
X0351445Y0164074D01*
X0351332Y0163963D01*
X0351217Y0163854D01*
X0351099Y0163749D01*
X0350978Y0163647D01*
X0350855Y0163547D01*
X0350729Y0163451D01*
X0350601Y0163358D01*
X0350471Y0163268D01*
X0350338Y0163182D01*
X0350203Y0163098D01*
X0350067Y0163019D01*
X0349928Y0162942D01*
X0349787Y0162870D01*
X0349645Y0162800D01*
X0349501Y0162735D01*
X0349355Y0162673D01*
X0349208Y0162615D01*
X0349059Y0162560D01*
X0348909Y0162509D01*
X0348758Y0162462D01*
X0348606Y0162419D01*
X0348453Y0162380D01*
X0348298Y0162344D01*
X0348143Y0162313D01*
X0347987Y0162285D01*
X0347831Y0162261D01*
X0347674Y0162241D01*
X0347516Y0162225D01*
X0347359Y0162213D01*
X0347200Y0162205D01*
X0347042Y0162201D01*
X0346884Y0162201D01*
X0346726Y0162205D01*
X0346567Y0162213D01*
X0346410Y0162225D01*
X0346252Y0162241D01*
X0346095Y0162261D01*
X0345939Y0162285D01*
X0345783Y0162313D01*
X0345628Y0162344D01*
X0345473Y0162380D01*
X0345320Y0162419D01*
X0345168Y0162462D01*
X0345017Y0162509D01*
X0344867Y0162560D01*
X0344718Y0162615D01*
X0344571Y0162673D01*
X0344425Y0162735D01*
X0344281Y0162800D01*
X0344139Y0162870D01*
X0343998Y0162942D01*
X0343859Y0163019D01*
X0343723Y0163098D01*
X0343588Y0163182D01*
X0343455Y0163268D01*
X0343325Y0163358D01*
X0343197Y0163451D01*
X0343071Y0163547D01*
X0342948Y0163647D01*
X0342827Y0163749D01*
X0342709Y0163854D01*
X0342594Y0163963D01*
X0342481Y0164074D01*
X0342371Y0164188D01*
X0342264Y0164305D01*
X0342160Y0164424D01*
X0342059Y0164546D01*
X0341962Y0164671D01*
X0341867Y0164798D01*
X0341776Y0164927D01*
X0341687Y0165058D01*
X0341603Y0165192D01*
X0341521Y0165328D01*
X0341443Y0165465D01*
X0341369Y0165605D01*
X0341298Y0165747D01*
X0341230Y0165890D01*
X0341166Y0166035D01*
X0341106Y0166181D01*
X0341050Y0166329D01*
X0340997Y0166478D01*
X0340948Y0166629D01*
X0340903Y0166781D01*
X0340862Y0166934D01*
X0340824Y0167087D01*
X0340791Y0167242D01*
X0340761Y0167398D01*
X0340735Y0167554D01*
X0340714Y0167711D01*
X0340696Y0167868D01*
X0340682Y0168026D01*
X0340672Y0168184D01*
X0340666Y0168342D01*
X0340664Y0168500D01*
M02*
