%
M48
M72
T01C0.0315
T02C0.0354
T03C0.0433
T04C0.1181
%
T01
X11100Y10100
X12100Y10100
X13100Y10100
X14100Y10100
X16100Y10600
X17100Y10600
X18100Y10600
X19100Y10600
X20100Y10600
X21100Y10600
X22100Y10600
X23100Y10600
X25100Y10100
X26100Y10100
X27100Y10100
X28100Y10100
X23100Y13600
X22100Y13600
X21100Y13600
X20100Y13600
X19100Y13600
X18100Y13600
X17100Y13600
X16100Y13600
X14100Y14100
X13100Y14100
X12100Y14100
X11100Y14100
X16100Y15350
X18100Y15350
X25100Y14100
X26100Y14100
X27100Y14100
X28100Y14100
T02
X31350Y14100
X32350Y14100
X33350Y14100
X34350Y14100
X35350Y14100
T03
X35820Y9486
X38380Y9486
X38380Y7714
X35820Y7714
X32880Y7714
X30320Y7714
X30320Y9486
X32880Y9486
X23630Y3486
X21070Y3486
X18130Y3486
X15570Y3486
X15570Y1714
X18130Y1714
X21070Y1714
X23630Y1714
X8631Y8322
X7378Y7069
X6381Y6628
X5128Y7881
X4131Y8322
X5569Y8878
X4572Y9319
X6822Y10131
X6381Y11128
X5128Y12381
X3319Y10572
X2322Y10131
X1069Y8878
X2878Y7069
X3319Y6072
X4572Y4819
T04
X1200Y1200
X1200Y16000
X38250Y16000
X38250Y1200
M30
